<svg width="1387" height="320" viewBox="0 0 1387 320" fill="none" xmlns="http://www.w3.org/2000/svg">
<rect width="1387" height="320" fill="#FFFAF1"/>
<path d="M656.589 195.771C655.835 195.771 655.835 194.354 656.589 194.259C663.463 193.22 663.086 189.534 661.485 182.446L659.131 171.861H645.948L642.652 188.872C641.993 193.031 645.1 194.259 648.208 194.259C648.961 194.354 648.867 195.771 648.208 195.771H633.706C632.765 195.771 632.765 194.259 633.706 194.259C637.661 194.259 638.697 186.132 639.545 182.257L651.504 129.521L649.809 124.229C649.62 123.473 650.374 123 650.939 123H654.329C654.988 123 655.741 123.662 655.93 124.701L668.642 182.918C669.49 186.982 669.866 192.842 674.669 194.259C675.234 194.354 675.611 195.771 674.669 195.771H656.589ZM646.513 169.498H658.66L652.822 143.13H652.445L646.513 169.498Z" fill="#3E240F"/>
<path d="M679.27 127.725H679.552C680.4 127.725 680.776 128.103 680.776 128.954V144.642C680.776 145.776 681.247 146.249 682.377 146.249H685.861C686.521 146.249 686.709 146.533 686.521 147.1L686.238 147.761C686.05 148.328 685.673 148.612 685.014 148.612H681.718C681.059 148.612 680.776 148.895 680.776 149.557V182.446C680.776 183.485 680.682 193.031 682.66 193.031C684.637 193.031 686.238 184.241 686.803 180.745C686.897 179.989 687.368 179.705 688.121 179.894C688.875 180.083 689.157 180.65 688.969 181.406C688.027 186.037 685.861 197 680.682 197C674.938 197 674.656 187.644 674.656 183.769V149.557C674.656 148.895 674.373 148.612 673.714 148.612H671.831C670.983 148.612 670.606 148.234 670.606 147.383C670.606 146.816 670.889 146.438 671.548 146.344C676.162 145.398 677.386 137.271 678.234 128.67C678.328 128.009 678.611 127.725 679.27 127.725Z" fill="#3E240F"/>
<path d="M696.834 127.725H697.117C697.964 127.725 698.341 128.103 698.341 128.954V144.642C698.341 145.776 698.812 146.249 699.942 146.249H703.426C704.085 146.249 704.273 146.533 704.085 147.1L703.802 147.761C703.614 148.328 703.237 148.612 702.578 148.612H699.282C698.623 148.612 698.341 148.895 698.341 149.557V182.446C698.341 183.485 698.247 193.031 700.224 193.031C702.202 193.031 703.802 184.241 704.367 180.745C704.462 179.989 704.932 179.705 705.686 179.894C706.439 180.083 706.722 180.65 706.533 181.406C705.592 186.037 703.426 197 698.247 197C692.502 197 692.22 187.644 692.22 183.769V149.557C692.22 148.895 691.937 148.612 691.278 148.612H689.395C688.547 148.612 688.171 148.234 688.171 147.383C688.171 146.816 688.453 146.438 689.112 146.344C693.727 145.398 694.951 137.271 695.798 128.67C695.892 128.009 696.175 127.725 696.834 127.725Z" fill="#3E240F"/>
<path d="M712.403 128.954C714.475 128.954 715.982 131.033 715.982 133.868C715.982 136.609 714.475 138.877 712.403 138.877C710.52 138.877 708.825 136.609 708.825 133.868C708.825 131.033 710.426 128.954 712.403 128.954ZM716.829 147.005V184.997C716.829 188.589 716.358 193.409 720.125 193.976C720.69 194.07 720.972 194.354 720.972 194.921C720.972 195.488 720.69 195.771 720.125 195.771H707.601C707.036 195.771 706.753 195.488 706.753 194.921C706.753 194.354 707.036 194.07 707.601 193.976C710.802 193.22 710.614 188.116 710.614 184.997V153.904C710.614 150.596 709.578 148.234 707.883 148.328C707.036 148.328 706.753 148.139 706.659 147.478C706.565 146.722 706.753 146.344 707.507 146.249L714.381 145.02C715.982 144.737 716.829 145.398 716.829 147.005Z" fill="#3E240F"/>
<path d="M740.911 193.692C743.453 192.936 741.382 189.156 740.817 187.738L732.153 169.215L741.193 152.959C742.135 150.974 742.512 149.557 741.099 148.801C740.346 148.328 739.969 147.95 739.969 147.289C739.969 146.438 740.44 145.966 741.287 145.966H749.857C750.704 145.966 751.175 146.438 751.175 147.289C751.175 148.139 750.798 148.612 749.857 148.801C747.597 149.273 746.655 150.502 745.242 153.148L738.651 165.151C738.18 166.096 738.18 166.946 738.557 167.891L744.772 182.257C746.372 186.037 749.763 192.842 753.153 193.881C753.812 194.07 754 194.259 754 194.826C754 195.393 753.718 195.771 753.153 195.771H740.911C740.252 195.771 739.969 195.393 739.969 194.732C739.969 194.165 740.157 193.881 740.911 193.692ZM732.624 124.985V184.997C732.624 188.589 732.53 193.125 735.826 193.787C736.485 193.881 736.767 194.259 736.767 194.826C736.767 195.488 736.485 195.771 735.826 195.771H723.49C722.831 195.771 722.548 195.488 722.548 194.826C722.548 194.259 722.831 193.976 723.49 193.787C726.315 192.936 726.503 188.116 726.503 184.997V139.066C726.503 133.112 726.409 133.112 726.315 131.884C726.315 128.198 725.185 125.835 723.207 126.402C722.831 126.497 722.642 126.402 722.548 126.024C722.454 125.646 722.548 125.363 722.925 125.268L730.27 123.189C731.871 122.716 732.624 123.378 732.624 124.985Z" fill="#3E240F"/>
</svg>
