<svg width="320" height="320" viewBox="0 0 320 320" fill="none" xmlns="http://www.w3.org/2000/svg">
<rect width="320" height="320" fill="#FFFAF1"/>
<path d="M167.711 239C165.357 239 165.357 235.922 167.711 235.717C189.191 233.46 188.014 225.457 183.012 210.068L175.656 187.086H134.46L124.161 224.021C122.101 233.049 131.812 235.717 141.522 235.717C143.876 235.922 143.582 239 141.522 239H96.2069C93.2644 239 93.2644 235.717 96.2069 235.717C108.566 235.717 111.802 218.07 114.451 209.657L151.821 95.1584L146.524 83.6675C145.936 82.026 148.29 81 150.056 81H160.649C162.708 81 165.063 82.4364 165.651 84.6935L205.375 211.094C208.024 219.917 209.201 232.639 224.208 235.717C225.973 235.922 227.15 239 224.208 239H167.711ZM136.226 181.956H174.184L155.941 124.706H154.764L136.226 181.956Z" fill="#3E240F"/>
</svg>
